<?xml version="1.0" standalone="no"?>
<!DOCTYPE svg PUBLIC "-//W3C//DTD SVG 20010904//EN"
 "http://www.w3.org/TR/2001/REC-SVG-20010904/DTD/svg10.dtd">
<svg version="1.0" xmlns="http://www.w3.org/2000/svg"
 width="507.000000pt" height="507.000000pt" viewBox="0 0 507.000000 507.000000"
 preserveAspectRatio="xMidYMid meet">
<metadata>
Created by potrace 1.14, written by Peter Selinger 2001-2017
</metadata>
<g transform="translate(0.000000,507.000000) scale(0.100000,-0.100000)"
fill="#000000" stroke="none">
<path d="M1815 4966 c-75 -18 -135 -55 -170 -104 -29 -42 -30 -48 -29 -145 0
-113 23 -189 91 -314 20 -35 33 -66 30 -69 -3 -3 -40 -10 -82 -15 -247 -31
-417 -189 -471 -439 -14 -63 -19 -126 -18 -245 0 -167 15 -277 59 -447 12 -48
19 -91 14 -95 -4 -4 -22 -38 -41 -74 -18 -36 -66 -101 -106 -145 -100 -110
-193 -242 -248 -354 -25 -52 -66 -134 -90 -181 -58 -114 -78 -200 -71 -309 9
-125 36 -191 150 -363 56 -84 102 -157 103 -162 1 -6 32 -65 70 -130 151 -267
274 -557 310 -737 19 -92 15 -233 -11 -393 -8 -50 -15 -93 -15 -97 0 -5 245
-8 545 -8 l545 0 0 88 0 87 76 40 c42 22 79 41 83 43 5 1 11 -45 14 -104 3
-58 8 -108 10 -111 3 -2 278 -5 613 -6 l609 -2 66 265 c182 723 262 1273 219
1499 -27 144 -202 500 -429 874 -124 204 -131 222 -131 336 0 96 1 99 27 116
83 55 168 164 141 181 -6 4 -13 3 -15 -3 -12 -35 -70 -103 -117 -138 -31 -22
-53 -46 -51 -52 2 -7 0 -13 -5 -13 -6 0 -10 -38 -10 -89 l0 -89 -67 -21 c-116
-35 -291 -148 -458 -295 l-50 -44 0 81 c-1 45 -9 115 -19 155 -10 40 -17 74
-15 76 2 1 39 13 82 26 91 28 223 98 210 111 -5 5 -46 -10 -98 -36 -122 -61
-224 -87 -352 -88 -83 0 -103 -3 -103 -15 0 -12 20 -14 115 -10 l116 3 9 -35
c25 -96 32 -150 27 -223 l-5 -80 -62 -62 -62 -63 23 -69 22 -70 -46 -124 c-25
-68 -55 -151 -68 -183 l-22 -59 -37 104 c-43 122 -82 202 -115 235 -19 19 -23
36 -27 98 -3 65 -9 86 -51 168 l-47 94 16 39 c23 56 65 114 115 160 116 107
169 185 185 273 5 27 15 37 53 57 85 43 141 125 141 206 0 95 -98 270 -231
413 l-71 76 33 32 c40 41 74 113 95 204 27 117 55 206 80 256 44 88 112 148
166 148 30 0 122 -62 209 -139 67 -61 68 -61 151 -72 138 -17 128 -10 112 -76
-18 -77 -18 -180 1 -233 l15 -43 -45 -79 c-39 -66 -47 -89 -51 -146 -3 -37 -7
-82 -9 -99 -3 -23 0 -33 10 -33 9 0 15 22 20 78 3 42 7 86 8 97 1 13 8 19 19
17 49 -8 156 164 182 293 19 91 24 227 10 232 -7 2 -13 -28 -17 -86 -11 -167
-66 -318 -144 -392 -41 -39 -41 -36 10 52 l37 66 -16 39 c-22 51 -22 170 0
253 9 35 16 64 14 66 -2 1 -52 8 -113 15 l-110 12 -65 58 c-80 71 -198 150
-222 150 -30 0 -82 -25 -120 -58 -53 -47 -104 -159 -144 -316 -35 -142 -68
-217 -110 -257 l-23 -22 -68 64 c-38 35 -121 106 -185 158 -100 81 -116 97
-105 110 6 9 33 41 58 71 61 72 126 183 144 244 57 192 -50 308 -320 345 -98
14 -216 13 -280 -3z m77 -53 c-41 -54 -60 -93 -77 -165 -17 -74 -19 -240 -4
-339 6 -38 8 -75 6 -82 -5 -13 -58 94 -89 183 -25 71 -35 223 -18 275 17 53
81 119 130 135 22 7 40 17 40 22 0 4 9 8 21 8 19 0 19 -2 -9 -37z m158 34 c0
-1 -9 -28 -20 -59 -28 -81 -89 -457 -90 -555 0 -9 -16 -13 -44 -13 l-44 0 -11
63 c-39 232 -14 407 76 519 36 44 41 47 86 48 26 0 47 -1 47 -3z m67 -101
c-11 -163 -56 -366 -109 -488 -40 -94 -48 -51 -23 143 27 221 48 327 81 409
12 31 19 37 36 32 20 -5 20 -10 15 -96z m-373 39 c-83 -86 -95 -215 -36 -390
16 -49 23 -80 16 -70 -25 34 -73 172 -85 242 -19 117 17 201 106 247 46 24 45
20 -1 -29z m438 -1 c6 -77 -10 -243 -32 -328 -22 -87 -65 -186 -98 -226 -33
-40 -34 -19 -2 66 40 105 76 272 91 417 8 80 16 117 25 117 7 0 13 -18 16 -46z
m77 20 c37 -14 39 -18 43 -62 14 -172 -49 -349 -161 -457 l-42 -40 29 65 c52
114 81 269 82 428 0 45 2 82 5 82 2 0 22 -7 44 -16z m141 -143 c24 -100 -37
-235 -182 -403 -43 -50 -55 -58 -84 -58 -19 0 -34 2 -34 4 0 2 29 33 65 69
105 105 164 257 165 421 l0 70 29 -28 c18 -17 34 -47 41 -75z m-737 -508
c-106 -139 -188 -423 -224 -779 -11 -106 -9 -137 8 -121 3 4 13 67 20 140 16
156 62 390 99 502 45 138 146 305 184 305 15 0 12 -8 -14 -43 -92 -123 -164
-361 -182 -601 -6 -81 -4 -96 8 -96 12 0 16 21 21 103 12 211 72 417 166 564
34 54 52 73 68 73 21 0 20 -2 -12 -49 -43 -66 -79 -162 -110 -296 -25 -109
-55 -309 -55 -364 0 -25 -4 -29 -39 -35 -72 -11 -133 -108 -117 -186 3 -17 2
-30 -2 -30 -5 0 -27 -16 -49 -35 -23 -19 -45 -35 -49 -35 -11 0 4 329 21 448
36 243 106 421 206 524 71 73 106 80 52 11z m177 -35 c-77 -145 -121 -345
-124 -563 -2 -123 -3 -132 -30 -178 -16 -27 -45 -91 -66 -144 l-38 -95 -25 34
c-34 45 -47 81 -47 134 0 36 6 51 36 84 40 44 75 52 106 23 23 -20 33 -12 19
16 -8 14 -8 47 -1 113 33 299 103 542 177 621 15 15 28 27 29 27 2 0 -14 -33
-36 -72z m105 55 c-4 -10 -18 -54 -31 -97 -114 -380 21 -651 367 -737 79 -19
333 -44 350 -33 24 14 3 24 -51 24 -182 0 -378 46 -483 114 -139 88 -209 245
-194 437 6 73 35 214 43 206 3 -2 11 -31 19 -63 22 -84 86 -209 146 -282 100
-124 286 -248 489 -327 111 -43 128 -57 169 -134 l31 -58 -51 -28 c-28 -15
-51 -25 -53 -23 -1 1 -8 15 -15 29 -31 62 -125 79 -491 88 l-285 6 -48 28
c-26 16 -63 49 -82 75 -33 45 -35 50 -35 137 0 204 42 402 117 557 41 83 52
98 72 98 18 0 22 -4 16 -17z m72 11 c15 -4 24 -19 32 -51 31 -123 124 -274
237 -387 83 -83 165 -141 299 -209 109 -56 154 -93 211 -170 46 -62 53 -87 31
-106 -11 -8 -17 -3 -29 22 -38 78 -73 113 -139 136 -341 124 -580 330 -654
562 -24 77 -35 209 -17 209 4 0 17 -3 29 -6z m-461 -64 c-130 -177 -190 -419
-191 -775 0 -193 -1 -200 -23 -224 -12 -13 -25 -21 -28 -18 -11 11 -6 411 6
512 24 201 82 371 157 463 30 37 107 102 119 102 2 0 -16 -27 -40 -60z m573 1
c92 -182 340 -424 626 -613 49 -33 93 -65 97 -71 4 -7 8 -34 8 -61 l0 -48 -45
58 c-62 79 -119 125 -226 178 -124 63 -202 118 -285 200 -107 108 -189 240
-228 369 -13 44 -13 47 5 47 13 0 28 -18 48 -59z m46 49 c22 0 265 -202 382
-318 60 -59 130 -134 155 -168 49 -63 118 -173 118 -187 0 -12 -167 104 -276
191 -179 143 -335 315 -395 435 -24 46 -27 58 -14 53 9 -3 23 -6 30 -6z m-716
-72 c-115 -146 -167 -354 -178 -708 l-6 -205 -17 125 c-49 343 -50 497 -5 595
41 88 98 157 168 204 33 22 65 41 70 41 5 0 -9 -23 -32 -52z m-224 -813 c38
-257 37 -254 25 -226 -30 69 -61 271 -65 426 -4 149 -3 153 6 65 5 -52 21
-171 34 -265z m487 -56 c-102 -208 -154 -387 -168 -577 -7 -89 -8 -92 -25 -76
-24 22 -24 57 2 208 35 211 96 421 156 541 39 78 43 80 71 52 l24 -25 -60
-123z m127 64 c2 -1 -10 -19 -26 -40 -77 -100 -133 -212 -152 -303 -6 -30 -20
-135 -32 -233 -12 -98 -24 -190 -28 -203 l-6 -25 -23 30 c-12 17 -19 31 -14
31 5 0 12 48 15 108 10 172 61 350 158 551 l60 123 22 -18 c12 -10 24 -20 26
-21z m371 -33 c191 -5 320 -12 345 -20 70 -22 95 -38 95 -65 0 -14 5 -25 11
-25 15 0 4 -41 -31 -117 -22 -47 -53 -86 -127 -160 -69 -68 -107 -115 -126
-155 -15 -31 -27 -62 -27 -67 0 -15 -18 -14 -76 5 -78 25 -246 30 -324 9 -98
-25 -191 -79 -264 -152 -39 -39 -66 -59 -68 -51 -3 7 -1 20 3 28 8 14 39 237
54 385 11 111 51 207 138 333 43 62 54 72 71 66 12 -4 158 -10 326 -14z m-685
-100 l38 -55 -27 -110 c-14 -60 -33 -155 -41 -210 -9 -55 -18 -115 -21 -133
-4 -27 -9 -32 -22 -27 -53 23 -103 28 -144 15 -79 -26 -175 -145 -227 -283 -6
-15 -22 -32 -35 -37 -33 -12 -39 -49 -34 -215 2 -74 1 -135 -3 -135 -18 0 -32
72 -40 208 -8 151 -7 154 17 199 28 54 29 66 8 88 -21 21 -57 13 -103 -23 -19
-14 -32 -21 -29 -16 90 150 142 222 257 354 36 41 80 101 96 133 42 83 144
208 212 261 31 25 58 44 59 43 1 -1 19 -27 39 -57z m1994 -305 c23 -41 41 -76
41 -79 0 -2 -80 -62 -177 -132 -229 -164 -370 -274 -466 -364 -50 -47 -79 -67
-82 -58 -2 7 -19 58 -36 113 l-31 100 124 120 c190 185 383 320 513 361 67 21
70 19 114 -61z m139 -237 c218 -364 363 -678 384 -831 20 -152 -17 -480 -103
-902 -38 -187 -141 -626 -174 -742 l-15 -51 -583 5 c-320 3 -585 8 -588 12 -4
3 -9 52 -12 107 l-5 102 142 95 c241 164 514 386 800 653 185 173 240 230 227
239 -7 4 -77 -57 -171 -149 -414 -401 -851 -738 -1170 -899 -124 -63 -139 -68
-181 -64 -98 12 -272 114 -484 284 -108 87 -110 89 -108 128 4 109 193 429
242 410 8 -3 75 -44 148 -91 72 -46 136 -84 140 -84 10 0 23 14 373 410 269
305 450 518 450 531 0 25 -31 0 -82 -64 -31 -40 -96 -117 -143 -172 l-87 -100
7 240 7 240 55 150 c30 82 58 156 62 163 6 11 13 0 25 -36 l17 -51 66 70 c85
89 247 220 488 393 105 75 191 136 192 136 0 0 37 -60 81 -132z m-1408 16 c90
-23 105 -32 137 -87 45 -74 63 -148 61 -242 -1 -44 2 -150 7 -236 7 -139 6
-158 -9 -175 -9 -10 -31 -36 -48 -57 -30 -37 -120 -97 -145 -97 -6 0 -21 15
-32 33 -26 42 -58 57 -121 57 -43 0 -52 -4 -67 -27 -9 -16 -28 -37 -42 -49
l-24 -21 -39 79 c-21 44 -38 81 -38 84 0 2 18 4 41 4 44 0 112 27 107 42 -4
12 -8 11 -54 -8 -60 -25 -103 -9 -136 51 l-27 50 31 32 c17 17 56 41 87 53
147 55 203 99 217 170 9 42 -16 38 -27 -4 -9 -34 -43 -72 -81 -92 -33 -17 -32
-17 -13 29 8 20 15 39 15 42 0 3 -7 5 -15 5 -8 0 -15 -9 -15 -20 0 -11 -19
-40 -43 -65 -45 -46 -75 -60 -62 -27 28 67 10 70 -27 4 -14 -26 -38 -58 -52
-71 l-26 -24 -39 84 c-21 46 -60 128 -85 182 l-45 98 67 67 c141 141 333 189
542 136z m-812 -33 c41 -21 125 -105 165 -166 14 -22 122 -247 240 -500 262
-562 408 -860 401 -819 -4 28 -2 31 34 42 50 15 86 65 117 165 28 87 62 261
73 367 l7 75 83 3 82 3 0 -119 c0 -66 -3 -146 -6 -180 l-7 -60 -214 -244
c-118 -133 -227 -256 -242 -271 l-28 -29 -136 87 c-105 66 -144 98 -171 135
-39 54 -73 76 -133 86 -92 14 -212 -104 -281 -275 l-29 -72 -35 43 c-79 99
-406 550 -503 694 -128 191 -147 236 -153 369 -4 104 11 202 28 174 11 -17 16
-4 24 64 3 27 12 58 20 69 14 19 15 15 18 -58 4 -113 22 -94 23 23 1 66 6 106
16 123 13 23 14 18 19 -82 5 -106 10 -125 28 -114 6 4 7 20 1 43 -5 21 -6 78
-3 128 6 80 10 92 35 117 31 32 69 37 69 11 0 -10 -9 -33 -20 -51 -22 -36 -25
-98 -11 -280 8 -108 20 -137 70 -171 l24 -15 -7 120 c-8 139 1 254 19 254 7 0
15 -19 19 -42 18 -115 69 -301 91 -326 64 -77 82 -196 51 -336 -17 -75 -17
-77 3 -105 54 -75 248 -233 353 -287 52 -27 77 -15 29 13 -16 10 -50 30 -75
45 -29 18 -44 32 -40 41 7 20 -167 300 -179 288 -8 -8 54 -120 152 -271 l16
-25 -35 25 c-19 13 -75 63 -124 110 l-89 86 18 89 c26 132 12 246 -40 316 -39
53 -51 86 -79 210 -38 170 -37 199 9 292 43 87 114 173 160 193 43 19 100 17
143 -5z m1090 -426 c47 -95 112 -289 112 -334 l0 -41 -78 0 -79 0 1 183 c1
100 2 170 4 155 2 -16 9 -28 18 -28 18 0 18 15 -1 76 -23 77 -19 75 23 -11z
m-74 -362 c-13 -129 -36 -292 -51 -358 l-16 -69 -44 49 c-85 95 -103 131 -103
204 l0 66 70 33 c54 25 79 44 108 82 20 27 38 49 40 49 1 1 0 -25 -4 -56z
m-343 -24 c15 -8 24 -7 35 2 37 30 80 -63 68 -149 -9 -68 17 -122 101 -210
l67 -71 -12 -38 c-33 -101 -77 -151 -123 -139 -20 5 -44 48 -136 241 -61 129
-111 239 -111 244 0 17 19 22 40 11 11 -6 25 -8 31 -5 16 11 -22 34 -56 35
l-30 1 24 19 c30 25 52 25 84 0 16 -13 28 -17 32 -10 9 15 -10 35 -45 50 -16
7 -27 16 -24 21 7 12 31 11 55 -2z m-925 -729 c70 -96 144 -195 163 -219 25
-31 35 -52 33 -71 -3 -24 13 -42 117 -135 306 -274 559 -444 701 -470 25 -4
51 0 88 14 l52 21 0 -70 0 -70 -515 0 c-283 0 -515 2 -515 5 0 3 7 51 16 108
9 56 16 156 17 222 0 101 -4 136 -26 217 -38 140 -99 289 -195 478 -46 91 -79
161 -74 155 5 -5 67 -89 138 -185z m574 68 c18 -13 42 -35 53 -49 l19 -26 -51
-64 c-91 -112 -151 -227 -197 -377 -4 -14 -85 50 -151 120 l-31 33 27 80 c43
129 115 231 201 289 35 23 91 20 130 -6z"/>
<path d="M2058 3283 c-60 -10 -23 -23 65 -23 93 0 180 -18 224 -46 23 -15 44
-1 26 17 -35 35 -230 67 -315 52z"/>
<path d="M2066 3098 c-17 -122 65 -208 183 -190 47 7 37 22 -14 22 -105 0
-153 53 -142 157 4 40 2 53 -8 53 -7 0 -15 -17 -19 -42z"/>
<path d="M2400 2432 c0 -10 -7 -27 -15 -39 -11 -16 -12 -24 -4 -29 13 -8 31
18 40 59 5 19 3 27 -7 27 -8 0 -14 -8 -14 -18z"/>
<path d="M2250 2395 c-10 -24 -28 -50 -39 -57 -20 -12 -29 -38 -13 -38 27 0
92 91 92 130 0 25 -23 6 -40 -35z"/>
<path d="M2320 2417 c0 -12 -7 -32 -15 -44 -8 -12 -11 -24 -6 -27 13 -8 38 25
46 62 5 25 3 32 -9 32 -10 0 -16 -9 -16 -23z"/>
<path d="M2398 2159 c-22 -24 -35 -29 -72 -29 -49 0 -62 -16 -22 -26 36 -9
103 14 125 42 19 24 20 46 3 43 -4 -1 -19 -14 -34 -30z"/>
<path d="M2174 1989 c10 -51 28 -62 24 -15 -2 23 -9 41 -17 44 -11 4 -13 -3
-7 -29z"/>
<path d="M2963 4853 c-150 -6 -110 -23 55 -23 144 0 148 -1 212 -31 63 -30 68
-31 165 -25 120 7 209 -9 305 -56 80 -38 221 -175 269 -260 18 -32 39 -58 47
-58 12 0 12 5 -2 33 -77 149 -227 286 -369 338 -48 18 -89 23 -205 26 -129 4
-152 7 -204 30 -64 28 -117 33 -273 26z"/>
<path d="M2865 4783 c-45 -8 -105 -26 -105 -33 0 -16 14 -17 57 -4 25 8 61 14
80 14 18 0 33 4 33 9 0 10 -37 18 -65 14z"/>
<path d="M2890 4717 c0 -15 13 -17 93 -17 118 0 219 -22 258 -54 35 -30 129
-61 214 -70 33 -4 68 -9 78 -12 11 -3 17 0 17 9 0 11 -16 17 -52 22 -112 14
-189 37 -236 70 -57 39 -114 52 -262 61 -98 6 -110 5 -110 -9z"/>
<path d="M3496 4672 c-4 -6 18 -18 51 -27 135 -39 233 -109 273 -194 24 -52
40 -65 40 -33 0 32 -60 122 -103 153 -86 64 -246 125 -261 101z"/>
<path d="M2855 4655 c-27 -8 -52 -14 -55 -15 -3 0 -20 -9 -38 -20 -53 -32 -27
-41 36 -13 41 19 80 27 139 31 99 5 143 -8 236 -71 68 -47 135 -72 216 -84 34
-5 43 -3 39 7 -2 8 -33 19 -70 26 -72 13 -107 29 -183 81 -27 19 -66 41 -85
50 -51 21 -175 26 -235 8z"/>
<path d="M3826 4561 c-4 -6 14 -36 40 -68 51 -62 94 -145 94 -180 0 -14 6 -23
15 -23 8 0 15 7 15 15 0 32 -40 117 -83 178 -53 73 -72 92 -81 78z"/>
<path d="M3657 4464 c-3 -3 2 -25 12 -47 30 -69 43 -141 43 -234 0 -106 -20
-199 -66 -299 -19 -40 -31 -76 -26 -79 12 -8 35 29 66 105 67 166 72 343 13
503 -20 54 -28 64 -42 51z"/>
<path d="M2866 4418 c-19 -27 -20 -55 -2 -87 10 -18 30 -28 83 -42 91 -23 163
-60 219 -111 34 -32 47 -39 57 -29 9 9 -12 35 -88 112 -176 178 -232 210 -269
157z m111 -42 c63 -48 127 -112 103 -103 -8 3 -46 15 -85 28 -114 35 -115 36
-115 67 0 26 15 52 31 52 4 0 33 -20 66 -44z"/>
<path d="M3797 4273 c9 -98 10 -265 1 -361 -4 -50 -10 -69 -32 -90 -26 -28
-34 -52 -17 -52 17 0 91 95 121 155 17 33 35 87 41 119 12 66 4 146 -14 146
-8 0 -12 -27 -12 -88 0 -75 -4 -96 -29 -150 -16 -34 -31 -61 -32 -59 -2 2 0
44 5 93 6 54 6 136 0 209 -10 138 -15 165 -30 165 -7 0 -7 -29 -2 -87z"/>
<path d="M4044 4273 c-8 -3 -8 -19 -2 -56 13 -69 -5 -204 -35 -271 -13 -28
-45 -77 -70 -108 -55 -68 -48 -85 10 -25 86 89 124 194 122 337 -1 94 -8 129
-25 123z"/>
<path d="M2860 4183 c0 -5 -7 -51 -15 -103 -16 -108 -11 -122 54 -140 44 -12
204 -13 197 -2 -3 5 -46 12 -95 15 -91 7 -141 21 -141 41 0 11 16 116 25 169
3 19 0 27 -10 27 -8 0 -15 -3 -15 -7z"/>
<path d="M3610 4079 c-14 -92 -59 -191 -96 -216 -13 -8 -24 -20 -24 -26 0 -6
-7 -18 -16 -28 -9 -10 -13 -23 -9 -29 4 -7 15 -2 30 15 30 31 36 31 65 0 19
-20 22 -32 17 -65 -6 -48 -29 -77 -74 -97 -36 -14 -44 -33 -15 -33 29 0 80 37
97 71 9 17 17 51 18 76 2 39 -2 48 -32 75 l-33 30 20 21 c41 45 69 124 81 230
11 91 -13 71 -29 -24z"/>
<path d="M3947 4051 c-36 -139 -129 -296 -227 -384 -66 -59 -56 -83 10 -27 90
75 184 222 228 356 31 94 36 124 20 124 -8 0 -20 -26 -31 -69z"/>
<path d="M3802 3660 c-43 -68 -76 -107 -70 -80 6 27 -18 19 -36 -12 -11 -17
-53 -66 -93 -109 -89 -93 -81 -117 10 -30 35 34 66 59 69 56 14 -14 178 193
178 226 0 28 -22 9 -58 -51z"/>
<path d="M3454 3547 c-2 -7 -3 -75 -2 -152 2 -100 6 -140 16 -143 9 -3 12 32
12 152 0 101 -4 156 -10 156 -6 0 -13 -6 -16 -13z"/>
<path d="M3594 3520 c-15 -37 -66 -92 -96 -103 -9 -3 -10 -8 -2 -16 25 -27
134 93 134 147 0 26 -21 10 -36 -28z"/>
</g>
</svg>
